<?xml version="1.0" standalone="no"?>
<!DOCTYPE svg PUBLIC "-//W3C//DTD SVG 20010904//EN"
 "http://www.w3.org/TR/2001/REC-SVG-20010904/DTD/svg10.dtd">
<svg version="1.0" xmlns="http://www.w3.org/2000/svg"
 width="512.000000pt" height="512.000000pt" viewBox="0 0 512.000000 512.000000"
 preserveAspectRatio="xMidYMid meet">
<metadata>
Created by potrace 1.14, written by Peter Selinger 2001-2017
</metadata>
<g transform="translate(0.000000,512.000000) scale(0.100000,-0.100000)"
fill="#000000" stroke="none">
<path d="M2491 4598 c-18 -5 -50 -20 -70 -33 -20 -13 -217 -205 -438 -427
-438 -440 -446 -448 -444 -554 1 -107 7 -115 454 -562 238 -239 429 -422 452
-434 26 -14 63 -23 106 -24 115 -5 116 -4 572 452 224 225 414 419 422 431 8
11 21 45 29 75 17 65 6 145 -26 193 -12 16 -204 214 -427 438 -295 297 -418
414 -450 428 -50 23 -130 31 -180 17z"/>
<path d="M260 4090 c-99 -17 -201 -105 -239 -203 -20 -51 -20 -71 -18 -1037 3
-968 3 -986 23 -1050 65 -201 89 -230 604 -743 432 -431 459 -456 530 -489 41
-20 96 -41 122 -46 26 -5 199 -9 385 -8 378 3 385 4 478 74 66 50 117 120 140
190 16 51 19 96 19 422 1 201 -2 394 -7 430 -18 151 -83 314 -169 430 -23 30
-188 202 -368 382 -356 357 -371 369 -479 371 -184 3 -307 -188 -232 -359 16
-35 76 -102 232 -258 116 -116 220 -228 231 -249 36 -66 22 -160 -31 -221 -46
-53 -156 -74 -222 -42 -40 19 -486 459 -528 521 -35 50 -55 95 -75 163 -13 45
-15 157 -16 750 0 467 -4 710 -11 737 -44 163 -204 265 -369 235z"/>
<path d="M4735 4088 c-129 -28 -237 -144 -250 -271 -2 -23 -5 -344 -5 -713 0
-564 -3 -681 -16 -730 -17 -68 -38 -115 -75 -169 -41 -61 -485 -501 -524 -519
-70 -34 -181 -14 -225 40 -50 62 -65 141 -40 209 6 17 109 129 229 250 245
247 264 273 264 375 0 186 -187 307 -359 231 -37 -17 -122 -96 -383 -359 -185
-185 -353 -362 -373 -393 -84 -128 -138 -267 -155 -404 -8 -67 -8 -759 1 -810
23 -141 152 -273 298 -304 60 -13 608 -12 693 0 40 6 102 26 145 46 72 34 94
54 541 502 349 349 475 482 503 528 38 65 82 163 90 204 3 13 9 47 15 74 6 32
10 397 10 1005 l0 955 -24 59 c-58 142 -213 226 -360 194z"/>
</g>
</svg>
